<svg xmlns="http://www.w3.org/2000/svg" width="24" height="24" viewBox="0 0 24 24" fill="none"><path d="M5.56401 24C3.79239 24 2.4083 23.391 1.41176 22.173C0.470588 20.8997 0 19.3218 0 17.4394C0 15.0035 0.359862 12.7889 1.07958 10.7958C1.85467 8.74741 2.87889 6.83737 4.15225 5.06574C5.42561 3.29412 6.86505 1.60554 8.47059 0L10.7128 1.91003C8.88581 3.84775 7.36332 5.86851 6.14533 7.97232C4.9827 10.0761 4.3737 12.0138 4.31834 13.7855C4.59516 13.7301 4.81661 13.7024 4.9827 13.7024C5.14879 13.7024 5.34256 13.7024 5.56401 13.7024C7.00346 13.7024 8.22145 14.2007 9.21799 15.1972C10.2145 16.1938 10.7128 17.4118 10.7128 18.8512C10.7128 20.2353 10.2145 21.4533 9.21799 22.5052C8.22145 23.5017 7.00346 24 5.56401 24ZM18.8512 24C17.0796 24 15.6955 23.391 14.699 22.173C13.7578 20.8997 13.2872 19.3218 13.2872 17.4394C13.2872 15.0035 13.6471 12.7889 14.3668 10.7958C15.1419 8.74741 16.1661 6.83737 17.4394 5.06574C18.7128 3.29412 20.1522 1.60554 21.7578 0L24 1.91003C22.173 3.84775 20.6505 5.86851 19.4325 7.97232C18.2699 10.0761 17.6609 12.0138 17.6055 13.7855C17.8824 13.7301 18.1038 13.7024 18.2699 13.7024C18.4914 13.7024 18.6851 13.7024 18.8512 13.7024C20.2907 13.7024 21.5086 14.2007 22.5052 15.1972C23.5017 16.1938 24 17.4118 24 18.8512C24 20.2353 23.5017 21.4533 22.5052 22.5052C21.564 23.5017 20.346 24 18.8512 24Z" fill="#205B4F"></path></svg>